#!OML:ASF H:\Terrain\Patient Classification 1\Animal1\Tuesday\Animal1.ASF
:FULLY-SPECIFIED
:DEGREES
3092
root -2.36115 15.492 -10.1747 -710.031 4.46879 -5.7922
lowerback 21.6274 -0.642429 -1.45038
upperback 1.52354 -1.2183 -0.285175
thorax -10.4291 -0.509682 0.880223
lowerneck -3.29164 -0.293679 -4.36083
upperneck -1.77652 -0.155529 16.8324
head 0.069041 -0.0151557 5.80007
rclavicle -3.57812e-015 -1.59028e-015
rhumerus -0.947941 -7.44021 -7.89605
rradius 28.74
rwrist -3.29963
rhand -23.438 32.8385
rfingers 7.12502
rthumb 3.02012 2.88013
lclavicle -3.57812e-015 -1.59028e-015
lhumerus -9.36868 0.0395362 37.4745
lradius 51.9714
lwrist -28.9665
lhand 0.611796 33.5497
lfingers 7.12502
lthumb 26.1762 61.7649
rfemur -48.7981 -1.46945 30.3638
rtibia 70.9489
rfoot 13.064 -4.90287
rtoes -23.9272
lfemur -57.3128 -17.3711 -5.61403
ltibia 81.9209
lfoot 35.0467 2.60774
ltoes 43.4774
3093
root -2.4152 15.4717 -10.1746 -709.774 5.71444 -6.62787
lowerback 21.5335 -0.812144 -0.58486
upperback 1.34872 -1.16847 0.284339
thorax -10.5794 -0.509174 0.999732
lowerneck -3.43075 -0.294907 -4.74259
upperneck -1.69098 -0.152725 16.8633
head 0.117959 -0.000544408 5.87591
rclavicle 3.02153e-014 1.51076e-014
rhumerus -0.544596 -7.32291 -8.03956
rradius 28.825
rwrist -3.28006
rhand -24.0594 32.8212
rfingers 7.12502
rthumb 2.42002 2.85516
lclavicle 3.02153e-014 1.51076e-014
lhumerus -10.0983 -0.0834926 37.4594
lradius 52.1974
lwrist -29.1571
lhand 1.12803 33.2854
lfingers 7.12502
lthumb 26.6704 61.4264
rfemur -49.1753 -1.42263 31.5222
rtibia 70.9685
rfoot 13.5704 -5.37191
rtoes -24.209
lfemur -58.2667 -16.4088 -4.70138
ltibia 82.0543
lfoot 34.9591 3.1885
ltoes 41.9364
3094
root -2.46662 15.4555 -10.1724 -709.667 6.97935 -6.85494
lowerback 21.5129 -0.8423 -0.159626
upperback 1.25708 -1.0654 0.630262
thorax -10.674 -0.470135 1.10881
lowerneck -3.34092 -0.411849 -4.90985
upperneck -1.83631 -0.285864 16.7315
head 0.0754234 -0.0749826 5.86183
rclavicle 6.36111e-015 1.11319e-014
rhumerus -0.604846 -7.35996 -8.01757
rradius 28.9106
rwrist -3.07928
rhand -24.3123 32.5339
rfingers 7.12502
rthumb 2.17575 2.5652
lclavicle 6.36111e-015 1.11319e-014
lhumerus -10.3095 -0.387771 37.5325
lradius 52.192
lwrist -29.1974
lhand 1.67138 33.1468
lfingers 7.12502
lthumb 27.1903 61.2076
rfemur -49.4142 -1.62937 32.0064
rtibia 71.05
rfoot 13.7637 -6.75795
rtoes -22.7106
lfemur -58.8437 -15.81 -4.46953
ltibia 82.1098
lfoot 34.7262 4.06932
ltoes 42.0136
3095
root -2.5157 15.4513 -10.1585 -709.809 8.08104 -6.62637
lowerback 21.656 -0.718551 -0.124579
upperback 1.24433 -0.884911 0.698449
thorax -10.77 -0.383944 1.1125
lowerneck -2.97231 -0.619636 -4.79569
upperneck -2.13773 -0.532843 16.6876
head -0.0469381 -0.226134 5.826
rclavicle -2.42517e-014 -8.74653e-015
rhumerus -0.995487 -7.74599 -8.18689
rradius 28.7514
rwrist -2.59338
rhand -24.2951 32.5426
rfingers 7.12502
rthumb 2.19234 2.57411
lclavicle -2.42517e-014 -8.74653e-015
lhumerus -10.1011 -0.882857 37.4545
lradius 52.0678
lwrist -29.3109
lhand 2.30978 33.1194
lfingers 7.12502
lthumb 27.8008 61.0831
rfemur -49.2738 -1.86303 31.924
rtibia 71.1663
rfoot 13.6773 -7.72425
rtoes -22.9367
lfemur -58.84 -15.4331 -4.84974
ltibia 82.201
lfoot 33.7333 5.31625
ltoes 43.4979
3096
root -2.56357 15.4574 -10.1417 -709.912 9.13817 -6.47578
lowerback 21.742 -0.630679 0.00268824
upperback 1.21675 -0.729 0.766787
thorax -10.8522 -0.314125 1.06972
lowerneck -2.82362 -0.759943 -4.4689
upperneck -2.23117 -0.720898 16.4154
head -0.0821627 -0.331042 5.68272
rclavicle 4.77083e-015 -7.15625e-015
rhumerus -1.28454 -7.71067 -8.33616
rradius 28.6069
rwrist -2.64659
rhand -24.466 32.7439
rfingers 7.12502
rthumb 2.02732 2.77383
lclavicle 4.77083e-015 -7.15625e-015
lhumerus -10.0731 -1.34912 37.2659
lradius 52.0533
lwrist -29.5737
lhand 2.71375 32.7228
lfingers 7.12502
lthumb 28.187 60.6234
rfemur -49.2083 -1.9416 31.8543
rtibia 71.3501
rfoot 13.8343 -8.34606
rtoes -22.3561
lfemur -58.8176 -14.8615 -5.23866
ltibia 82.2174
lfoot 32.4004 6.6048
ltoes 44.6173
3097
root -2.6094 15.4548 -10.1253 -709.851 10.2372 -6.50291
lowerback 21.6741 -0.592247 0.284644
upperback 1.09405 -0.581934 0.997094
thorax -10.9561 -0.251544 1.11938
lowerneck -2.78804 -0.830278 -4.15716
upperneck -2.17665 -0.834684 15.8469
head -0.0671753 -0.387653 5.4504
rclavicle -2.8625e-014 -1.74931e-014
rhumerus -1.29508 -7.51167 -8.324
rradius 28.4794
rwrist -2.77195
rhand -24.6507 32.6527
rfingers 7.12502
rthumb 1.84897 2.681
lclavicle -2.8625e-014 -1.74931e-014
lhumerus -10.2505 -1.62916 37.2705
lradius 51.9083
lwrist -29.884
lhand 3.15171 32.0487
lfingers 7.12502
lthumb 28.6055 59.8796
rfemur -49.4114 -2.01473 32.0272
rtibia 71.5547
rfoot 14.4878 -9.05186
rtoes -19.6031
lfemur -59.0316 -14.0291 -5.49084
ltibia 82.2011
lfoot 31.4772 6.78605
ltoes 43.6479
3098
root -2.64561 15.4472 -10.1004 -709.703 11.3026 -6.24476
lowerback 21.4803 -0.522355 0.32677
upperback 0.968415 -0.457211 1.19416
thorax -10.9914 -0.188766 1.27465
lowerneck -2.47682 -0.950719 -4.17782
upperneck -2.44544 -0.965639 15.5791
head -0.18636 -0.475188 5.37121
rclavicle 3.18055e-015 5.56597e-015
rhumerus -1.36487 -7.50824 -8.26668
rradius 28.4792
rwrist -2.71011
rhand -24.3922 32.2754
rfingers 7.12502
rthumb 2.09854 2.30594
lclavicle 3.18055e-015 5.56597e-015
lhumerus -10.4309 -1.87347 37.3966
lradius 51.6884
lwrist -30.1343
lhand 3.69892 31.6191
lfingers 7.12502
lthumb 29.1282 59.3608
rfemur -49.5135 -2.30613 31.9465
rtibia 71.7173
rfoot 14.9049 -9.37884
rtoes -19.6589
lfemur -59.1916 -13.3492 -6.05703
ltibia 82.1398
lfoot 30.6796 6.8603
ltoes 43.1292
3099
root -2.67573 15.4452 -10.075 -709.571 12.4051 -6.01106
lowerback 21.3095 -0.490557 0.458644
upperback 0.889146 -0.363349 1.36995
thorax -10.9877 -0.145772 1.36422
lowerneck -2.35593 -1.12645 -4.30302
upperneck -2.65337 -1.17667 15.4609
head -0.245557 -0.591203 5.35539
rclavicle 2.70347e-014 -4.37326e-015
rhumerus -1.53949 -7.40163 -8.2192
rradius 28.5459
rwrist -2.8322
rhand -23.9134 32.1637
rfingers 7.12502
rthumb 2.56099 2.19936
lclavicle 2.70347e-014 -4.37326e-015
lhumerus -10.4642 -2.07856 37.4649
lradius 51.4788
lwrist -30.2312
lhand 4.12244 31.7649
lfingers 7.12502
lthumb 29.5326 59.4358
rfemur -49.4554 -2.65947 31.8912
rtibia 71.8058
rfoot 14.9781 -9.61776
rtoes -21.316
lfemur -59.2825 -12.7934 -6.56325
ltibia 82.0118
lfoot 29.6515 7.05128
ltoes 43.4275
3100
root -2.70868 15.4499 -10.0537 -709.669 13.5809 -6.04073
lowerback 21.348 -0.536933 0.82813
upperback 0.905689 -0.310051 1.56591
thorax -10.9929 -0.133102 1.35417
lowerneck -2.70808 -1.29268 -4.18248
upperneck -2.46703 -1.42846 15.1776
head -0.110975 -0.694647 5.24166
rclavicle -3.57812e-015 -1.47101e-014
rhumerus -1.52602 -7.39476 -8.28842
rradius 28.4735
rwrist -2.84443
rhand -23.6065 32.1727
rfingers 7.12502
rthumb 2.85743 2.2121
lclavicle -3.57812e-015 -1.47101e-014
lhumerus -10.4404 -2.29221 37.315
lradius 51.4057
lwrist -30.1009
lhand 4.55003 32.3039
lfingers 7.12502
lthumb 29.9407 59.9019
rfemur -49.2382 -2.98024 32.0931
rtibia 71.8507
rfoot 15.1963 -10.2073
rtoes -21.1131
lfemur -59.2414 -12.1794 -6.84484
ltibia 81.8194
lfoot 28.8705 6.98099
ltoes 42.7698
3101
root -2.74309 15.4636 -10.0335 -709.861 14.7967 -5.92776
lowerback 21.5068 -0.605045 1.03893
upperback 0.975601 -0.326138 1.71939
thorax -11.0027 -0.14569 1.40992
lowerneck -3.21708 -1.42679 -4.03163
upperneck -2.18426 -1.64722 14.9454
head 0.0738862 -0.77262 5.13715
rclavicle -2.98177e-015 -7.95139e-016
rhumerus -1.364 -7.66337 -8.4438
rradius 28.299
rwrist -2.29401
rhand -23.6233 31.9757
rfingers 7.12502
rthumb 2.84117 2.01486
lclavicle -2.98177e-015 -7.95139e-016
lhumerus -10.7367 -2.63889 37.0131
lradius 51.7417
lwrist -29.8769
lhand 4.75187 32.4845
lfingers 7.12502
lthumb 30.1333 60.0476
rfemur -49.0265 -3.4126 32.0822
rtibia 71.9591
rfoot 14.7396 -11.5165
rtoes -18.515
lfemur -59.0835 -11.5882 -7.27825
ltibia 81.5632
lfoot 27.9155 7.4317
ltoes 42.6728
3102
root -2.77171 15.4675 -10.013 -709.848 15.9685 -5.69845
lowerback 21.4826 -0.616722 1.13353
upperback 0.97831 -0.295965 1.90239
thorax -10.9866 -0.130035 1.5492
lowerneck -3.40489 -1.56434 -4.08158
upperneck -2.16665 -1.8329 14.8168
head 0.127423 -0.856039 5.1018
rclavicle 4.63168e-014 -1.35174e-014
rhumerus -1.18008 -8.13754 -8.59866
rradius 27.9859
rwrist -1.32275
rhand -24.2582 31.9392
rfingers 7.12502
rthumb 2.22796 1.97106
lclavicle 4.63168e-014 -1.35174e-014
lhumerus -11.0593 -2.77838 36.9363
lradius 51.8644
lwrist -29.7947
lhand 4.776 32.1831
lfingers 7.12502
lthumb 30.1563 59.7419
rfemur -49.0484 -3.92971 32.003
rtibia 72.0901
rfoot 14.5191 -12.3352
rtoes -17.0837
lfemur -59.118 -10.9509 -7.79692
ltibia 81.3571
lfoot 26.5947 8.3337
ltoes 43.3868
3103
root -2.79526 15.4611 -9.99347 -709.635 17.0749 -5.34528
lowerback 21.2692 -0.597127 1.11884
upperback 0.929035 -0.258539 2.06049
thorax -10.9239 -0.106596 1.71887
lowerneck -3.40434 -1.66685 -4.09746
upperneck -2.26049 -1.96015 14.6009
head 0.10938 -0.922472 5.03621
rclavicle 1.21259e-014 1.51076e-014
rhumerus -1.05411 -8.21828 -8.70212
rradius 27.7722
rwrist -1.02966
rhand -24.951 32.1952
rfingers 7.12502
rthumb 1.55888 2.22113
lclavicle 1.21259e-014 1.51076e-014
lhumerus -11.0865 -2.48718 36.9891
lradius 51.4636
lwrist -30.0055
lhand 5.35072 31.6865
lfingers 7.12502
lthumb 30.7044 59.1439
rfemur -49.2073 -4.42538 31.8865
rtibia 72.1946
rfoot 16.9729 -9.12935
rtoes -24.9946
lfemur -59.3404 -10.3919 -8.42579
ltibia 81.2888
lfoot 25.0188 9.26658
ltoes 44.5707
